<?xml version="1.0" encoding="utf-8"?>
<!-- Generator: Adobe Illustrator 24.0.1, SVG Export Plug-In . SVG Version: 6.00 Build 0)  -->
<svg version="1.1" id="Layer_1" xmlns="http://www.w3.org/2000/svg" xmlns:xlink="http://www.w3.org/1999/xlink" x="0px" y="0px"
	 viewBox="0 0 423 103" style="enable-background:new 0 0 423 103;" xml:space="preserve">
<style type="text/css">
	.st0{fill:#FF6666;}
</style>
<title>zion-builder-logo-zn</title>
<g>
	<path class="st0" d="M48.6,79c3.9-1.3,8-2.4,12.3-3.5s8.7-2,13.1-2.9c4.4-0.8,8.8-1.5,13.2-2c4.4-0.5,8.7-0.7,12.8-0.7
		c1.4,0,3.1,0,5.2,0.1s4.1,0.4,6,0.8c1.9,0.5,3.6,1.2,5,2.3c1.4,1,2.1,2.5,2.1,4.4c0,1.2-0.3,2.4-0.9,3.5s-1.2,2-2,2.6
		s-1.5,0.8-2.3,0.6c-0.7-0.2-1.3-1.1-1.7-2.6c-0.8-0.5-2-0.9-3.4-1.2c-1.4-0.3-2.9-0.5-4.4-0.7c-1.6-0.2-3.1-0.3-4.5-0.3
		c-1.5-0.1-2.7-0.1-3.7-0.1c-8.7,0-17.2,0.7-25.6,2.1s-16.7,3.2-25.1,5.5c0.1,0.6,0.2,1.2,0.3,1.9c0.1,0.7,0.2,1.3,0.2,2
		c0,0.6-0.1,1.2-0.4,1.7c-0.3,0.5-0.8,0.9-1.5,1.1s-1.2,0.2-1.6-0.1c-0.4-0.2-0.7-0.5-1.1-0.9s-0.6-0.7-0.9-1
		c-0.3-0.3-0.7-0.5-1.1-0.5c-1.3,0-2.7,0.2-4.3,0.6s-3.2,0.9-4.8,1.5c-1.7,0.6-3.3,1.2-4.9,1.9c-1.6,0.7-3.1,1.3-4.4,1.9
		s-2.5,1.1-3.4,1.5c-1,0.4-1.6,0.6-2,0.6c-0.4-0.2-0.7-0.5-0.9-1c-0.1-0.5-0.2-0.9-0.2-1.3c0-0.7,0.1-1.3,0.3-1.9s0.6-1.1,1.1-1.4
		c1.4-1,3.1-2,5.1-3.1s4-2.2,6.1-3.3c2.1-1.1,4.3-2.1,6.4-3s4.2-1.7,6-2.4c0.4-2,1.2-4.5,2.6-7.5c1.4-3,3.2-6.2,5.3-9.7
		s4.5-7.1,7.3-10.9c2.7-3.8,5.6-7.5,8.5-11.1c3-3.6,6-7,9.1-10.3c3.1-3.2,6.1-6,8.9-8.5c2.9-2.4,5.5-4.3,8-5.7c2.5-1.4,4.6-2,6.4-2
		c0.4,0,0.8,0.3,1.2,0.8c0.4,0.6,0.7,1.2,1,1.9c0.3,0.7,0.6,1.4,0.8,2.1c0.2,0.7,0.3,1.2,0.3,1.5c-4.8,3.9-9.5,7.9-14.3,12.2
		c-4.7,4.2-9.2,8.7-13.5,13.3S62,57.4,58.2,62.5C54.6,68,51.4,73.4,48.6,79z"/>
	<path class="st0" d="M130.3,58.3c0.9,0.3,1.9,0.3,3-0.1c1.1-0.4,2.3-0.9,3.5-1.6c1.2-0.7,2.4-1.5,3.5-2.5c1.2-0.9,2.2-1.8,3.1-2.6
		c0.9-0.8,1.6-1.5,2.2-2.1c0.6-0.6,0.9-0.9,1-0.9c0.7,0.2,1,0.7,1.2,1.3c0.1,0.6,0.2,1.2,0.2,1.7c-0.6,0.9-1.6,2.1-2.9,3.5
		c-1.3,1.5-2.8,2.9-4.4,4.3c-1.6,1.4-3.2,2.7-4.8,3.7c-1.6,1-3,1.5-4.1,1.5c-0.9,0-1.7-0.3-2.4-0.8c-0.7-0.5-1.3-1.2-1.7-2
		c-0.4-0.8-0.8-1.7-1-2.6c-0.2-0.9-0.4-1.7-0.4-2.5c0-0.4,0-0.7,0-1.1c0-0.4,0.1-0.7,0.1-1c-0.7,0.7-1.8,1.7-3.1,3.1
		c-1.4,1.4-2.8,2.7-4.4,4.1c-1.6,1.3-3.1,2.5-4.6,3.5s-2.7,1.5-3.6,1.5c-0.7,0-1.2-0.3-1.7-0.9s-0.9-1.2-1.3-2
		c-0.3-0.7-0.6-1.5-0.8-2.3c-0.2-0.8-0.3-1.5-0.3-2c0-1.4,0.4-3,1.3-5c0.8-1.9,1.9-3.8,3.2-5.6c1.3-1.8,2.7-3.3,4.3-4.6
		c1.6-1.3,3.1-1.9,4.5-1.9c1.7,0,3.2,0.5,4.7,1.5c1.4,1,2.4,2.3,2.9,3.9c0.3-0.2,1-0.8,2-1.7s2.1-1.8,3.2-2.7
		c1.1-0.9,2.2-1.7,3.2-2.5c1-0.7,1.6-1.1,1.8-1.1c0.3,0,0.6,0.2,0.8,0.5s0.4,0.7,0.6,1.2c0.1,0.5,0.3,0.9,0.4,1.4
		c0.1,0.4,0.1,0.8,0.1,1c0,0.7-0.3,1.4-1,2.3c-0.7,0.9-1.3,1.6-1.7,2.1c-2.2,2.3-3.9,4.6-5.3,7.1c-0.3,0.5-0.5,0.9-0.7,1.4
		C130.8,57.4,130.6,57.8,130.3,58.3z M112.4,59.6L112.4,59.6c0.6-0.1,1.5-0.6,2.8-1.5s2.7-1.9,4.1-3s2.7-2.2,3.8-3.2
		c1.1-1,1.7-1.7,1.8-2.2c-0.3-0.1-0.7-0.2-1.1-0.3s-0.8-0.1-1.1-0.1c-1.2,0-2.3,0.4-3.4,1.1c-1,0.7-2,1.6-2.9,2.7
		c-0.9,1.1-1.7,2.2-2.4,3.4S112.8,58.7,112.4,59.6z"/>
	<path class="st0" d="M176.1,35.4c-2.6,0.1-5.3,0.6-7.9,1.5c-2.6,0.9-5.1,2.1-7.5,3.6s-4.6,3.2-6.5,5.1c-2,1.9-3.6,3.8-4.8,5.7
		c2,0.7,4,1.3,6,1.7s4,0.8,6,1.2s4,0.9,5.9,1.4c1.9,0.6,3.8,1.4,5.7,2.5c0.8-0.4,2.1-1,3.9-1.8c1.8-0.8,3.6-1.7,5.5-2.6
		c1.9-0.9,3.6-1.7,5.2-2.4c1.6-0.7,2.7-1,3.2-1c0.3,0,0.6,0.2,0.8,0.5c0.2,0.4,0.4,0.8,0.5,1.2c0.1,0.5,0.3,0.9,0.3,1.4
		c0.1,0.4,0.1,0.8,0.1,0.9c0,0.2-0.6,0.6-1.8,1.1s-2.7,1.1-4.3,1.8c-1.7,0.7-3.4,1.4-5.2,2.2s-3.3,1.6-4.6,2.5
		c0.7,0.7,1.1,1.7,1.3,3.1c0.2,1.3,0.3,2.6,0.1,3.9c-0.2,1.9-0.5,3.6-0.9,5.1s-1.3,2.9-2.5,4.4c-1.6,2-3.3,3.9-5.2,5.6
		s-4,3.2-6.3,4.4c-2.2,1.3-4.6,2.2-7.1,3c-2.5,0.7-5,1.1-7.6,1.1c-1.3,0-2.7-0.1-4-0.4s-2.6-0.7-3.8-1.3c-1.2-0.6-2.1-1.4-2.9-2.5
		c-0.7-1-1.1-2.4-1.1-4c0-0.8,0.2-1.6,0.6-2.3c0.4-0.7,0.9-1.4,1.4-2c0.6-0.7,1.5-1.5,2.8-2.5s2.8-2,4.5-3.1s3.5-2.2,5.4-3.4
		c1.9-1.2,3.7-2.3,5.5-3.4s3.4-2.1,4.9-3s2.7-1.7,3.7-2.2c-2.5-0.6-5-1-7.6-1.3c-2.5-0.3-5.1-0.8-7.6-1.5c-2-0.6-3.4-1.6-4.3-3.1
		c-0.9-1.5-1.4-3.3-1.4-5.3c0-1.9,0.5-3.7,1.6-5.5s2.5-3.6,4.2-5.3s3.7-3.3,5.9-4.8s4.5-2.7,6.7-3.8c2.3-1.1,4.5-1.9,6.7-2.6
		c2.2-0.6,4.1-0.9,5.7-0.9c1.9,0,3.3,0.5,4,1.4s1.2,2.3,1.2,4.1c0,0.6,0,1.1-0.1,1.4c-0.2,0.8-0.6,1.8-1.4,2.8c-0.7,1-1.7,2-2.9,3.1
		c-1.2,1-2.4,2.1-3.8,3.1c-1.4,1-2.7,1.9-4.1,2.7c-1.3,0.8-2.6,1.5-3.8,1.9c-1.2,0.5-2.2,0.7-3,0.7c-0.7,0-1.3-0.3-1.9-0.8
		c-0.6-0.5-1.1-1.1-1.4-1.8c-0.3-0.7-0.5-1.4-0.4-2.1c0-0.7,0.3-1.3,0.9-1.8h1.5c0.8,0,2-0.3,3.6-0.9c1.6-0.6,3.2-1.3,4.8-2.1
		s3.2-1.6,4.6-2.5C174.6,36.9,175.5,36.1,176.1,35.4z M144.7,86.4c2.5,0,5-0.3,7.5-1s4.9-1.6,7.2-2.8c2.3-1.2,4.5-2.6,6.5-4.3
		c2-1.7,3.8-3.5,5.3-5.5c0.2-0.2,0.4-0.6,0.7-1c0.3-0.5,0.6-0.9,0.9-1.4c0.3-0.5,0.6-0.9,0.8-1.4s0.3-0.8,0.3-1.1
		c0-0.2-0.1-0.5-0.4-0.9c-0.2-0.4-0.5-0.7-0.9-1s-0.7-0.5-1-0.7s-0.6-0.2-0.8-0.2c-0.5,0.2-1.6,0.9-3.4,2c-1.8,1.1-3.8,2.5-6.1,4
		c-2.3,1.6-4.7,3.3-7.1,5.1c-2.4,1.8-4.5,3.5-6.3,5s-3.1,2.8-3.8,3.8S143.6,86.4,144.7,86.4z"/>
	<path class="st0" d="M215.7,74.7c5.4-5.8,11-11.4,16.7-16.9s11.6-10.7,17.8-15.6s12.6-9.4,19.3-13.5S283.4,21,290.9,18
		c2.5-1,5.2-1.9,8.2-2.7c3.1-0.8,5.9-1.2,8.4-1.2c1.3,0,2.5,0.2,3.6,0.5c1.2,0.4,2.2,0.9,3,1.6c0.9,0.7,1.6,1.6,2.1,2.6
		s0.8,2.3,0.8,3.6c0,0.2,0,0.5,0,0.9c0,0.5,0,0.9-0.1,1.4c-0.1,0.4-0.2,0.8-0.4,1.2c-0.2,0.3-0.4,0.4-0.7,0.3
		c-0.7-0.4-1.4-0.8-2.2-1c-0.8-0.2-1.6-0.4-2.5-0.6s-1.7-0.3-2.6-0.3c-0.9-0.1-1.6-0.1-2.3-0.1c-4.6,0-9.4,0.9-14.5,2.6
		s-10.2,3.9-15.4,6.7s-10.3,5.9-15.4,9.4c-5.1,3.5-9.9,7.1-14.5,10.9c-4.6,3.7-8.9,7.3-12.8,10.9c-3.9,3.5-7.4,6.7-10.3,9.4
		c-2.9,2.8-5.2,5-6.9,6.7s-2.6,2.6-2.6,2.6c-0.5,0-1-0.3-1.5-0.9s-0.9-1.3-1.3-2.2c-0.4-0.8-0.7-1.7-0.9-2.5s-0.3-1.5-0.3-1.9
		c0-1.9,0.3-4,1-6.4s1.5-5,2.5-7.7s2-5.5,3.2-8.3c1.1-2.8,2.2-5.5,3.2-8.2s1.8-5.2,2.5-7.5s1-4.4,1-6.1c0-1.9-0.6-3.2-1.9-4
		s-2.8-1.2-4.5-1.2c-0.7,0-1.7,0.2-3,0.5s-2.5,0.7-3.8,1.2s-2.4,1-3.5,1.6c-1,0.6-1.8,1.2-2.1,1.9c-1.4-0.3-2.2-0.7-2.4-1.2
		c-0.1-0.5-0.2-1.1-0.2-1.8c0-1.1,0.7-2.2,2-3.4c1.3-1.2,2.9-2.2,4.6-3.1s3.5-1.7,5.3-2.3c1.8-0.6,3.1-0.9,4.1-0.9
		c2,0,3.8,0.5,5.4,1.7c1.6,1.1,2.9,2.5,3.9,4.2s1.8,3.5,2.4,5.5c0.5,2,0.8,3.8,0.8,5.6c0,1.7-0.4,3.8-1.1,6.2
		c-0.7,2.4-1.6,5-2.7,7.7c-1.1,2.7-2.3,5.4-3.5,8.1c-1.3,2.7-2.4,5.2-3.5,7.6c-1.1,2.3-2,4.3-2.7,6C216,73,215.6,74.1,215.7,74.7
		L215.7,74.7z"/>
	<path class="st0" d="M266.4,57.4c-0.7,1-1.4,2.1-2,3.3s-0.9,2.4-0.9,3.7c0,0.4,0.1,0.8,0.4,1c0.2,0.2,0.5,0.4,0.9,0.5
		s0.7,0.2,1.1,0.2s0.7,0,1,0c1.7,0,3.4-0.5,5.2-1.4c1.8-0.9,3.6-2.1,5.3-3.5c1.8-1.4,3.5-2.9,5.1-4.6c1.6-1.6,3-3.2,4.3-4.6
		c1.3-1.4,2.3-2.6,3.1-3.5c0.8-0.9,1.4-1.4,1.6-1.4s0.3,0.2,0.5,0.5c0.1,0.3,0.3,0.6,0.4,1s0.2,0.7,0.2,1.1c0.1,0.4,0.1,0.7,0.1,0.9
		c0,0.4-0.4,1.2-1.3,2.4s-2,2.6-3.4,4.3c-1.4,1.6-2.9,3.3-4.6,5.1s-3.4,3.5-5.2,5c-1.7,1.5-3.4,2.8-4.9,3.8c-1.6,1-2.8,1.5-3.9,1.5
		c-1.6,0-3-0.3-4.2-1c-1.3-0.7-2.3-1.5-3.1-2.6c-0.8-1-1.5-2.2-1.9-3.5s-0.7-2.5-0.7-3.7c0-1.7,0.6-3.6,1.7-5.7
		c1.1-2.1,2.5-4,4.1-5.8s3.5-3.3,5.4-4.5c2-1.2,3.9-1.8,5.6-1.8c0.6,0,1.2,0.2,1.8,0.5c0.6,0.4,1.1,0.8,1.5,1.4s0.8,1.2,1.1,1.8
		c0.3,0.7,0.4,1.3,0.4,1.9c0,1.1-0.4,2.3-1.3,3.5c-0.8,1.2-1.9,2.2-3.1,3.1c-1.2,0.9-2.5,1.7-3.9,2.3s-2.6,0.9-3.7,0.9
		c-0.7,0-1.2-0.2-1.7-0.6C267,58.3,266.7,57.9,266.4,57.4z M269.2,54.7c2.9-0.8,5.2-2.4,7.1-4.6c-1.4,0.5-2.6,1.1-3.8,1.9
		C271.3,52.8,270.2,53.7,269.2,54.7z"/>
	<path class="st0" d="M303.6,49c-0.7,0.5-1.8,1.2-3.4,2.3c-1.5,1-3.1,2.1-4.8,3.2c-1.6,1.1-3.2,2-4.7,2.8s-2.6,1.2-3.3,1.2
		c-0.5,0-1-0.2-1.4-0.5c-0.5-0.3-0.9-0.8-1.4-1.3c-0.4-0.5-0.8-1-1.1-1.5c-0.3-0.5-0.4-0.9-0.4-1.3c0-1.4,0.5-2.8,1.6-4.3
		c1-1.5,2.3-2.9,3.9-4.3c1.5-1.3,3.1-2.4,4.8-3.2c1.7-0.8,3.2-1.3,4.5-1.3c1.2,0,2.4,0.2,3.5,0.7c1.2,0.5,2.2,1,3.2,1.6
		c0.7-0.2,1.4-0.8,2-1.6s1.3-1.7,2-2.5s1.6-1.6,2.6-2.3s2.2-1,3.7-1c0.8,0,1.5,0.5,2.1,1.4c0.5,1,0.8,1.8,0.8,2.5
		c0,0.4-0.1,0.8-0.4,1.1s-0.7,0.6-1.1,0.8s-0.9,0.4-1.3,0.6c-0.4,0.2-0.8,0.4-1,0.5c-1.9,1.4-3.2,2.9-3.9,4.7
		c-0.7,1.7-1.4,3.7-1.8,5.8c1.9-0.9,3.9-1.8,6-2.6c2.1-0.9,4.1-1.6,6.1-2.3s3.8-1.2,5.6-1.7c1.7-0.4,3.2-0.6,4.4-0.6
		c1,0,1.7,0.3,1.9,0.9c0.3,0.6,0.4,1.4,0.4,2.2c0,0.1-0.2,0.2-0.7,0.4c-0.4,0.1-1,0.2-1.5,0.4c-0.6,0.1-1.1,0.2-1.6,0.3
		s-0.8,0.1-0.9,0.1c-2.2,0.3-4.2,0.9-6.3,1.7c-2,0.8-4,1.7-5.9,2.7c-0.3,0.2-0.9,0.5-1.8,0.9s-1.8,0.9-2.8,1.4s-1.9,1-2.6,1.5
		c-0.8,0.5-1.2,0.8-1.2,1c-0.2,1.2-0.3,2.4-0.5,3.5c-0.1,1.1-0.3,2.3-0.4,3.5c-0.4,3.8-1.3,7.7-2.6,11.8c-1.3,4.1-3.1,7.7-5.5,10.7
		c-2.3,2.9-4.8,4.8-7.6,5.9c-2.8,1.1-6,1.6-9.6,1.6c-1.5,0-3-0.2-4.5-0.5s-2.8-0.9-4-1.6s-2.1-1.7-2.9-2.9c-0.7-1.2-1.1-2.7-1.1-4.5
		c0-1.4,0.5-2.9,1.5-4.4s2.2-3,3.5-4.5c1.4-1.5,2.8-2.8,4.3-4.1c1.5-1.3,2.8-2.3,3.8-3.1c3.3-2.7,6.7-5.1,10-7.3s6.7-4.4,10-6.7
		c0.1-0.1,0.2-0.5,0.4-1.3c0.2-0.8,0.4-1.6,0.6-2.6c0.2-0.9,0.4-1.8,0.5-2.6C303.5,49.7,303.6,49.2,303.6,49z M301.2,63H301
		c-2.3,1.5-4.8,3.2-7.4,5c-2.6,1.9-5.1,3.8-7.5,6c-2.4,2.1-4.7,4.3-6.9,6.7c-2.1,2.3-3.9,4.7-5.4,7.2c1.1,0.1,2.2,0.2,3.3,0.1
		c1.1-0.1,2.2-0.1,3.2-0.2c3.6-0.2,6.6-1,9-2.5s4.3-3.4,5.8-5.6c1.5-2.3,2.7-4.9,3.6-7.8S300.5,66,301.2,63z M291.8,51.4
		c1.1-0.7,2.3-1.4,3.5-2.1c1.2-0.8,2.7-1.7,4.6-2.8c-0.2-0.8-0.6-1.2-1.2-1.3s-1.3,0-2.1,0.4c-0.8,0.3-1.6,0.8-2.3,1.4
		c-0.8,0.6-1.4,1.2-2,1.8c-0.5,0.6-0.9,1.2-1.1,1.7C291.1,51,291.3,51.3,291.8,51.4z"/>
	<path class="st0" d="M346.5,58.3c0.9,0.3,1.9,0.3,3-0.1c1.1-0.4,2.3-0.9,3.5-1.6c1.2-0.7,2.4-1.5,3.5-2.5c1.2-0.9,2.2-1.8,3.1-2.6
		s1.6-1.5,2.2-2.1s0.9-0.9,1-0.9c0.7,0.2,1,0.7,1.2,1.3c0.1,0.6,0.2,1.2,0.2,1.7c-0.6,0.9-1.6,2.1-2.9,3.5c-1.3,1.5-2.8,2.9-4.4,4.3
		c-1.6,1.4-3.2,2.7-4.8,3.7c-1.6,1-3,1.5-4.1,1.5c-0.9,0-1.7-0.3-2.4-0.8c-0.7-0.5-1.3-1.2-1.7-2c-0.4-0.8-0.8-1.7-1-2.6
		c-0.2-0.9-0.4-1.7-0.4-2.5c0-0.4,0-0.7,0-1.1c0-0.4,0.1-0.7,0.1-1c-0.7,0.7-1.8,1.7-3.1,3.1c-1.4,1.4-2.8,2.7-4.4,4.1
		c-1.6,1.3-3.1,2.5-4.6,3.5s-2.7,1.5-3.6,1.5c-0.7,0-1.2-0.3-1.7-0.9s-0.9-1.2-1.3-2c-0.3-0.7-0.6-1.5-0.8-2.3
		c-0.2-0.8-0.3-1.5-0.3-2c0-1.4,0.4-3,1.3-5c0.8-1.9,1.9-3.8,3.2-5.6c1.3-1.8,2.7-3.3,4.3-4.6c1.6-1.3,3.1-1.9,4.5-1.9
		c1.7,0,3.2,0.5,4.7,1.5c1.4,1,2.4,2.3,2.9,3.9c0.3-0.2,1-0.8,2-1.7s2.1-1.8,3.2-2.7s2.2-1.7,3.2-2.5c1-0.7,1.6-1.1,1.8-1.1
		c0.3,0,0.6,0.2,0.8,0.5c0.2,0.3,0.4,0.7,0.6,1.2c0.1,0.5,0.3,0.9,0.4,1.4c0.1,0.4,0.1,0.8,0.1,1c0,0.7-0.3,1.4-1,2.3
		c-0.7,0.9-1.3,1.6-1.7,2.1c-2.2,2.3-3.9,4.6-5.3,7.1c-0.3,0.5-0.5,0.9-0.7,1.4C347,57.4,346.8,57.8,346.5,58.3z M328.6,59.6
		L328.6,59.6c0.6-0.1,1.5-0.6,2.8-1.5s2.7-1.9,4.1-3s2.7-2.2,3.8-3.2c1.1-1,1.7-1.7,1.8-2.2c-0.3-0.1-0.7-0.2-1.1-0.3
		s-0.8-0.1-1.1-0.1c-1.2,0-2.3,0.4-3.4,1.1c-1,0.7-2,1.6-2.9,2.7c-0.9,1.1-1.7,2.2-2.4,3.4C329.6,57.7,329,58.7,328.6,59.6z"/>
	<path class="st0" d="M392.3,35.4c-2.6,0.1-5.3,0.6-7.9,1.5s-5.1,2.1-7.5,3.6s-4.6,3.2-6.5,5.1c-2,1.9-3.6,3.8-4.8,5.7
		c2,0.7,4,1.3,6,1.7s4,0.8,6,1.2s4,0.9,5.9,1.4c1.9,0.6,3.8,1.4,5.7,2.5c0.8-0.4,2.1-1,3.9-1.8s3.6-1.7,5.5-2.6
		c1.9-0.9,3.6-1.7,5.2-2.4s2.7-1,3.2-1c0.3,0,0.6,0.2,0.8,0.5c0.2,0.4,0.4,0.8,0.5,1.2c0.1,0.5,0.3,0.9,0.3,1.4
		c0.1,0.4,0.1,0.8,0.1,0.9c0,0.2-0.6,0.6-1.8,1.1c-1.2,0.5-2.7,1.1-4.3,1.8c-1.7,0.7-3.4,1.4-5.2,2.2c-1.8,0.8-3.3,1.6-4.6,2.5
		c0.7,0.7,1.1,1.7,1.3,3.1c0.2,1.3,0.3,2.6,0.1,3.9c-0.2,1.9-0.5,3.6-0.9,5.1s-1.3,2.9-2.5,4.4c-1.6,2-3.3,3.9-5.2,5.6
		c-1.9,1.7-4,3.2-6.3,4.4c-2.2,1.3-4.6,2.2-7.1,3c-2.5,0.7-5,1.1-7.6,1.1c-1.3,0-2.7-0.1-4-0.4c-1.4-0.2-2.6-0.7-3.8-1.3
		c-1.2-0.6-2.1-1.4-2.9-2.5c-0.7-1-1.1-2.4-1.1-4c0-0.8,0.2-1.6,0.6-2.3c0.4-0.7,0.9-1.4,1.4-2c0.6-0.7,1.5-1.5,2.8-2.5
		s2.8-2,4.5-3.1s3.5-2.2,5.4-3.4c1.9-1.2,3.7-2.3,5.5-3.4s3.4-2.1,4.9-3s2.7-1.7,3.7-2.2c-2.5-0.6-5-1-7.6-1.3
		c-2.5-0.3-5.1-0.8-7.6-1.5c-2-0.6-3.4-1.6-4.3-3.1s-1.4-3.3-1.4-5.3c0-1.9,0.5-3.7,1.6-5.5s2.5-3.6,4.2-5.3s3.7-3.3,5.9-4.8
		c2.2-1.5,4.5-2.7,6.7-3.8c2.3-1.1,4.5-1.9,6.7-2.6c2.2-0.6,4.1-0.9,5.7-0.9c1.9,0,3.3,0.5,4,1.4c0.8,1,1.2,2.3,1.2,4.1
		c0,0.6,0,1.1-0.1,1.4c-0.2,0.8-0.6,1.8-1.4,2.8c-0.7,1-1.7,2-2.9,3.1c-1.2,1-2.4,2.1-3.8,3.1s-2.7,1.9-4.1,2.7
		c-1.3,0.8-2.6,1.5-3.8,1.9c-1.2,0.5-2.2,0.7-3,0.7c-0.7,0-1.3-0.3-1.9-0.8s-1.1-1.1-1.4-1.8s-0.5-1.4-0.4-2.1
		c0-0.7,0.3-1.3,0.9-1.8h1.5c0.8,0,2-0.3,3.6-0.9c1.6-0.6,3.2-1.3,4.8-2.1c1.6-0.8,3.2-1.6,4.6-2.5
		C390.7,36.9,391.7,36.1,392.3,35.4z M360.9,86.4c2.5,0,5-0.3,7.5-1s4.9-1.6,7.2-2.8c2.3-1.2,4.5-2.6,6.5-4.3c2-1.7,3.8-3.5,5.3-5.5
		c0.2-0.2,0.4-0.6,0.7-1c0.3-0.5,0.6-0.9,0.9-1.4s0.6-0.9,0.8-1.4c0.2-0.5,0.3-0.8,0.3-1.1c0-0.2-0.1-0.5-0.4-0.9
		c-0.2-0.4-0.5-0.7-0.9-1s-0.7-0.5-1-0.7s-0.6-0.2-0.8-0.2c-0.5,0.2-1.6,0.9-3.4,2s-3.8,2.5-6.1,4c-2.3,1.6-4.7,3.3-7.1,5.1
		c-2.4,1.8-4.5,3.5-6.3,5S361,84,360.3,85S359.8,86.4,360.9,86.4z"/>
</g>
</svg>
